# xmcd
#
# Track frame offsets:
#  150
#  20559
#  39548
#  53876
#  70680
#  91879
#  112217
#  136291
#  165400
#  188892
#  206939
#
# Disc length: 3068 seconds
#
# Revision: 0
# Processed by: cddbd v1.5.1PL2 Copyright (c) Steve Scherf et al.
# Submitted via: Collectorz.com_Music_Collector 6.9
#
DISCID=9b0bfa0b
DTITLE=John Lee Hooker - I Feel Good
DYEAR=2002
DGENRE=Blues
TTITLE0=Baby Baby
TTITLE1=I Feel Good
TTITLE2=Going Home
TTITLE3=We Are Cooking
TTITLE4=Looking Back Over My Day
TTITLE5=Dazie Mae
TTITLE6=Stand Back
TTITLE7=Call It The Night
TTITLE8=Roll And Tumble
TTITLE9=Bottle Of Vine
TTITLE10=Baby Don't Do Me Wrong
EXTD=
EXTT0=
EXTT1=
EXTT2=
EXTT3=
EXTT4=
EXTT5=
EXTT6=
EXTT7=
EXTT8=
EXTT9=
EXTT10=
PLAYORDER=
